<?xml version="1.0" encoding="UTF-8"?>
<svg width="100" height="120" viewBox="0 0 100 120" fill="none" xmlns="http://www.w3.org/2000/svg">
  <!-- Gradient Definitions -->
  <defs>
    <linearGradient id="purple-gradient" x1="0%" y1="0%" x2="100%" y2="0%">
      <stop offset="0%" stop-color="#8B5CF6"/>
      <stop offset="50%" stop-color="#A78BFA"/>
      <stop offset="100%" stop-color="#C4B5FD"/>
    </linearGradient>

    <linearGradient id="dark-purple" x1="0%" y1="0%" x2="100%" y2="100%">
      <stop offset="0%" stop-color="#4C1D95"/>
      <stop offset="100%" stop-color="#5B21B6"/>
    </linearGradient>

    <linearGradient id="letter-gradient" x1="0%" y1="0%" x2="100%" y2="100%">
      <stop offset="0%" stop-color="#6D28D9"/>
      <stop offset="50%" stop-color="#7C3AED"/>
      <stop offset="100%" stop-color="#8B5CF6"/>
    </linearGradient>

    <filter id="shadow">
      <feDropShadow dx="0" dy="4" stdDeviation="6" flood-opacity="0.2"/>
    </filter>
  </defs>

  <!-- Shield Outline -->
  <path d="M50 12 C74 12, 88 24, 88 42 L88 68 C88 90, 70 105, 50 110 C30 105, 12 90, 12 68 L12 42 C12 24, 26 12, 50 12Z"
        fill="#4C1D95"
        stroke="#2E1065"
        stroke-width="3"/>

  <!-- Inner Shield -->
  <path d="M50 16 C72 16, 84 26, 84 42 L84 66 C84 86, 68 100, 50 105 C32 100, 16 86, 16 66 L16 42 C16 26, 28 16, 50 16Z"
        fill="url(#purple-gradient)"/>

  <!-- Darker Left Side -->
  <path d="M50 16 C28 16, 16 26, 16 42 L16 66 C16 86, 32 100, 50 105 Z"
        fill="#7C3AED"
        opacity="0.5"/>

  <!-- Letter E - Modern Rounded Style -->
  <g>
    <!-- Base E shape -->
    <path d="M 32 38
             L 58 38
             Q 62 38, 62 42
             L 62 44
             Q 62 48, 58 48
             L 42 48
             L 42 54
             L 54 54
             Q 58 54, 58 58
             L 58 60
             Q 58 64, 54 64
             L 42 64
             L 42 70
             L 58 70
             Q 62 70, 62 74
             L 62 76
             Q 62 80, 58 80
             L 32 80
             Q 28 80, 28 76
             L 28 42
             Q 28 38, 32 38 Z"
          fill="#4C1D95"/>

    <!-- Middle layer -->
    <path d="M 34 40
             L 56 40
             Q 60 40, 60 44
             L 60 45
             Q 60 49, 56 49
             L 40 49
             L 40 55
             L 52 55
             Q 56 55, 56 59
             L 56 61
             Q 56 65, 52 65
             L 40 65
             L 40 71
             L 56 71
             Q 60 71, 60 75
             L 60 77
             Q 60 81, 56 81
             L 34 81
             Q 30 81, 30 77
             L 30 44
             Q 30 40, 34 40 Z"
          fill="#7C3AED"
          opacity="0.8"/>

    <!-- Top highlight -->
    <path d="M 35 41
             L 55 41
             Q 58 41, 58 44
             L 58 45
             Q 58 48, 55 48
             L 38 48
             L 38 56
             L 50 56
             Q 53 56, 53 59
             L 53 61
             Q 53 64, 50 64
             L 38 64
             L 38 72
             L 55 72
             Q 58 72, 58 75
             L 58 76
             Q 58 79, 55 79
             L 35 79
             Q 32 79, 32 76
             L 32 44
             Q 32 41, 35 41 Z"
          fill="#A78BFA"
          opacity="0.6"/>
  </g>

  <!-- Shield highlight -->
  <path d="M50 16 C60 16, 70 20, 78 28 Q84 34, 84 42 L84 50 Q72 40, 50 40 Q28 40, 16 50 L16 42 Q16 34, 22 28 C30 20, 40 16, 50 16Z"
        fill="white"
        opacity="0.15"/>

  <!-- Bottom shadow -->
  <ellipse cx="50" cy="115" rx="30" ry="3" fill="black" opacity="0.15"/>
</svg>